<?xml version="1.0" encoding="UTF-8"?><svg id="Layer_1" xmlns="http://www.w3.org/2000/svg" xmlns:xlink="http://www.w3.org/1999/xlink" viewBox="0 0 932.84 984.08"><defs><style>.cls-1{fill:url(#linear-gradient);}</style><linearGradient id="linear-gradient" x1="466.42" y1="984.08" x2="466.42" y2="0" gradientUnits="userSpaceOnUse"><stop offset="0" stop-color="#624877"/><stop offset="1" stop-color="#c82d71"/></linearGradient></defs><path class="cls-1" d="M894.14,300.5c-24.79-58.6-60.25-111.22-105.42-156.38-45.17-45.17-97.78-80.63-156.38-105.42C571.64,13.02,507.19,0,440.8,0,260.3,0,94.56,98.59,8.27,257.29c-17.77,32.67-5.68,73.56,26.99,91.33,10.22,5.56,21.24,8.2,32.11,8.19,21.24,0,41.89-10.07,54.77-28.09,.85-1.18,1.66-2.39,2.43-3.64,.71-1.12,1.38-2.27,2.02-3.45,62.11-114.25,180.87-185.62,310.56-186.93,.74,0,1.48,0,2.22-.02h1.43c1.06,0,2.12,0,3.18,.02,134.56,1.18,251.61,77.1,311.55,188.19,1.39,3.6,2.17,7.32,2.37,11.03v.03c3.11,19.35-6.14,39.34-23.84,49.21-7.08,3.93-15.07,6.02-23.14,6.02-17.28,0-33.23-9.37-41.62-24.46-46.32-83.17-134.15-134.83-229.23-134.83-144.55,0-262.15,117.61-262.15,262.15s117.61,262.15,262.15,262.15c95.08,0,182.91-51.66,229.23-134.83,8.39-15.08,24.34-24.46,41.62-24.46,8.06,0,16.05,2.08,23.13,6.02,17.68,9.84,26.92,29.79,23.84,49.15-.19,3.74-.96,7.49-2.36,11.11-59.93,111.1-176.98,187.02-311.55,188.2-1.06,0-2.12,.02-3.18,.02h-1.43c-.75,0-1.48,0-2.22-.02-129.75-1.32-248.53-72.73-310.64-187.05-.64-1.18-1.31-2.33-2.01-3.46-.77-1.24-1.57-2.44-2.42-3.62-19.47-27.27-56.68-36.36-86.88-19.95-32.68,17.75-44.78,58.63-27.02,91.31,86.26,158.81,252.04,257.46,432.61,257.46,66.39,0,130.84-13.02,191.54-38.7,58.6-24.79,111.21-60.25,156.38-105.42,45.17-45.16,80.63-97.78,105.42-156.38,25.68-60.7,38.7-125.15,38.7-191.54s-13.02-130.84-38.7-191.54Z"/></svg>